<svg xmlns="http://www.w3.org/2000/svg" width="2316" height="1412" viewBox="1233.386 2916.962 1916 1412" enable-background="new 1233.386 2916.962 1916 1412"><path fill="#4D8697" d="M2638.745 3939.601l132.877-102.216 51.107 129.473z"/><path fill="#6CA6B7" d="M2938.923 3929.595l-167.301-92.21 51.107 129.473z"/><path fill="#7FB4C5" d="M2938.923 3929.595l-167.301-92.21 111.143-60.638z"/><path fill="#83BBCD" d="M2938.923 3929.595l-153.295 126.918 37.101-89.655z"/><path fill="#5899AD" d="M2638.745 3939.601l147.077 116.452 36.907-89.195z"/><path fill="#7FB4C5" d="M2638.745 3939.601l147.077 116.452-13.122 110.923z"/><path fill="#6EA8BB" d="M2638.745 3939.601l-13.019 196.499 146.974 30.876z"/><path fill="#8ABFD0" d="M2679.771 4314.822l-54.045-178.722 146.974 30.876z"/><path fill="#7FB4C5" d="M2679.771 4314.822l196.1-68.658-103.171-79.188z"/><path fill="#5F95A5" d="M2638.745 3939.601l-13.019 196.499-73.161-109.206z"/><path fill="#78A9B7" d="M2508.663 4139.718l117.063-3.618-73.161-109.206z"/><path fill="#6EA8BB" d="M2508.663 4139.718l117.063-3.618 54.036 178.679z"/><path fill="#7FB4C5" d="M2508.663 4139.718l6.993 106.446 164.106 68.615z"/><path fill="#4E889A" d="M2638.745 3939.601l-143.102-23.63 56.922 110.923z"/><path fill="#6EA8BB" d="M2418.605 4079.683l77.038-163.712 56.922 110.923z"/><path fill="#7FB4C5" d="M2418.605 4079.683l90.09 60.041 43.87-112.83z"/><path fill="#4D8697" d="M2418.605 4079.683l90.09 60.041-106.225 37.257z"/><path fill="#5899AD" d="M2515.667 4245.782l-6.972-106.058-106.225 37.257z"/><path fill="#7FB4C5" d="M2515.667 4245.782l-147.061 54.035 33.864-122.836z"/><path fill="#6EA8BB" d="M2288.523 4189.747l80.083 110.07 33.864-122.836z"/><path fill="#7FB4C5" d="M2288.523 4189.747l80.083 110.07-122.234-30.785z"/><path fill="#6EA8BB" d="M2288.523 4189.747l-133.096-13.624 90.945 92.909z"/><path fill="#8ABFD0" d="M2418.605 4079.683l77.038-163.712-103.18.858z"/><path fill="#78A9B7" d="M2418.605 4079.683l-103.076-73.66 76.934-89.194z"/><path fill="#437E91" d="M2418.605 4079.683l-103.076-73.66 86.941 170.958z"/><path fill="#4D8697" d="M2288.523 4189.747l27.006-183.724 86.941 170.958z"/><path fill="#5F95A5" d="M2288.523 4189.747l27.006-183.724-103.18 60.894z"/><path fill="#78A9B7" d="M2288.523 4189.747l-133.096-13.624 56.922-109.206z"/><path fill="#80B4C4" d="M2288.523 3889.571l27.006 116.452 76.934-89.194z"/><path fill="#4D8697" d="M2288.523 3889.571l27.006 116.452-98.173-69.182z"/><path fill="#80B4C4" d="M2288.523 3889.571l-113.083-43.641 41.916 90.911z"/><path fill="#5F95A5" d="M2288.523 3889.571l-113.083-43.641 41.916 90.911z"/><path fill="#437E91" d="M2212.349 4066.917l103.18-60.894-98.173-69.182z"/><path fill="#4D8697" d="M2212.349 4066.917l-86.941-80.905 91.948-49.171z"/><path fill="#5899AD" d="M2498.656 3799.519l-3.013 116.452-103.18.858z"/><path fill="#80B4C4" d="M2498.656 3799.519l-123.089 16.393 16.896 100.917z"/><path fill="#6EA8BB" d="M2368.574 3679.448l6.993 136.464-113.186-19.153z"/><path fill="#5F95A5" d="M2288.523 3889.571l87.044-73.659 16.896 100.917z"/><path fill="#78A9B7" d="M2288.523 3889.571l87.044-73.659-113.186-19.153z"/><path fill="#6EA8BB" d="M2288.523 3889.571l-113.083-43.641 86.941-49.171z"/><path fill="#5899AD" d="M2498.656 3799.519l-123.089 16.393 86.941-99.2z"/><path fill="#5F95A5" d="M2498.656 3799.519l117.063-63.654-153.211-19.153z"/><path fill="#78A9B7" d="M2368.574 3679.448l6.993 136.464 86.941-99.2z"/><path fill="#437E91" d="M2638.745 3939.601l-143.102-23.63 166.992-89.195z"/><path fill="#4D8697" d="M2498.656 3799.519l-3.013 116.452 166.992-89.195z"/><path fill="#5899AD" d="M2498.656 3799.519l117.063-63.654 46.916 90.911zM2638.745 3939.601l132.916-102.19-109.026-10.635z"/><path fill="#7FB4C5" d="M2728.802 3719.472l42.859 117.939-109.026-10.635z"/><path fill="#6CA6B7" d="M2728.802 3719.472l-113.086 16.445 46.919 90.859z"/><path fill="#78A9B7" d="M2728.802 3719.472l42.859 117.939 111.104-60.664z"/><path fill="#83BBCD" d="M2728.802 3719.472l172.935-72.172-18.972 129.447z"/><path fill="#8ABFD0" d="M2968.94 4119.706l-183.118-63.653-13.122 110.923z"/><path fill="#6CA6B7" d="M2968.94 4119.706l-93.065 126.458-103.175-79.188z"/><path fill="#7FB4C5" d="M2968.94 4119.706l-93.065 126.458 166.983 30.876z"/><path fill="#8ABFD0" d="M2968.94 4119.706l97.046-33.636-23.128 190.97z"/><path fill="#80B4C4" d="M3042.858 4006.882l-73.918 112.824-183.118-63.653 257.036-49.171M3042.858 4006.882l-73.918 112.824 97.046-33.636-23.128-79.188"/><path fill="#6CA6B7" d="M2968.94 4119.706l97.046-33.636-23.128-79.188"/><path fill="#78A9B7" d="M3042.858 4006.882l-103.935-77.287-153.101 126.458 257.036-49.171"/><path fill="#80B4C4" d="M3042.858 4006.882l-103.935-77.287 97.046-43.642 6.889 120.929"/><path fill="#78A9B7" d="M2882.765 3776.747l153.204 109.206-97.046 43.642z"/><path fill="#4D8697" d="M2882.765 3776.747l153.204 109.206-27.005-126.458z"/><path fill="#6CA6B7" d="M2882.765 3776.747l18.972-129.447 107.227 112.195z"/><path fill="#5899AD" d="M3064.107 3559.387l-162.37 87.913 107.227 112.195z"/><path fill="#4D8697" d="M1692.122 3859.554l-132.881-102.216-51.11 129.474z"/><path fill="#6CA6B7" d="M1391.932 3849.548l167.309-92.21-51.11 129.474z"/><path fill="#7FB4C5" d="M1391.932 3849.548l167.309-92.21-111.148-60.638z"/><path fill="#83BBCD" d="M1391.932 3849.548l153.302 126.918-37.103-89.654z"/><path fill="#5899AD" d="M1692.122 3859.554l-147.082 116.452-36.909-89.194z"/><path fill="#7FB4C5" d="M1692.122 3859.554l-147.082 116.452 13.123 110.923z"/><path fill="#6EA8BB" d="M1692.122 3859.554l13.02 196.499-146.979 30.876z"/><path fill="#8ABFD0" d="M1642.09 4254.787l63.052-198.734-146.979 30.876z"/><path fill="#7FB4C5" d="M1642.09 4254.787l-197.11-108.682 113.183-59.176z"/><path fill="#5F95A5" d="M1692.122 3859.554l13.02 196.499 73.16-109.206z"/><path fill="#78A9B7" d="M1822.205 4059.671l-117.063-3.618 73.16-109.206z"/><path fill="#6EA8BB" d="M1822.205 4059.671l-117.063-3.618-63.042 198.691z"/><path fill="#7FB4C5" d="M1822.205 4059.671l-6.994 106.446-173.111 88.627z"/><path fill="#4E889A" d="M1692.122 3859.554l143.102-23.63-56.922 110.923z"/><path fill="#6EA8BB" d="M1912.262 3999.636l-77.038-163.712-56.922 110.923z"/><path fill="#7FB4C5" d="M1912.262 3999.636l-90.09 60.041-43.87-112.83z"/><path fill="#78A9B7" d="M1912.262 3999.636l-90.09 60.041 106.225 37.258z"/><path fill="#8ABFD0" d="M1815.2 4165.735l6.972-106.058 106.225 37.258z"/><path fill="#6EA8BB" d="M1815.2 4165.735l137.054 104.065-23.857-172.865z"/><path fill="#7FB4C5" d="M2042.344 4109.7l-90.09 160.1-23.857-172.865z"/><path fill="#8ABFD0" d="M2042.344 4109.7l-90.09 160.1 203.173-93.677z"/><path fill="#7FB4C5" d="M2042.344 4109.7l170.005-42.783-56.922 109.206z"/><path fill="#8ABFD0" d="M1912.262 3999.636l-77.038-163.712 103.18.858z"/><path fill="#78A9B7" d="M1912.262 3999.636l103.076-73.659-76.934-89.195z"/><path fill="#5F95A5" d="M1912.262 3999.636l103.076-73.659-86.941 170.958z"/><path fill="#78A9B7" d="M2042.344 4109.7l-27.006-183.723-86.941 170.958zM2042.344 4109.7l-27.006-183.723 110.07 60.044zM2042.344 4109.7l170.005-42.783-86.941-80.896z"/><path fill="#4D8697" d="M2042.344 3809.524l-27.006 116.453-76.934-89.195z"/><path fill="#437E91" d="M2042.344 3809.524l-27.006 116.453 160.102-80.047z"/><path fill="#80B4C4" d="M2042.344 3809.524l113.083-43.641 20.013 80.047z"/><path fill="#4D8697" d="M2042.344 3809.524l113.083-43.641 20.013 80.047z"/><path fill="#5899AD" d="M2262.401 3796.788l-106.974-30.905 20.013 80.047z"/><path fill="#80B4C4" d="M2262.401 3796.788l-106.974-30.905 213.147-86.435zM2125.408 3986.021l-110.07-60.044 160.102-80.047z"/><path fill="#6EA8BB" d="M2125.408 3986.021l91.948-49.18-41.916-90.911z"/><path fill="#5899AD" d="M1832.211 3719.472l3.013 116.452 103.18.858z"/><path fill="#80B4C4" d="M1832.211 3719.472l123.089 16.393-16.896 100.917zM1962.293 3599.401l-6.993 136.464 113.186-19.153z"/><path fill="#8ABFD0" d="M1962.293 3599.401l230.59 20.557-124.397 96.754z"/><path fill="#5899AD" d="M2042.344 3809.524l-87.044-73.659-16.896 100.917z"/><path fill="#78A9B7" d="M2042.344 3809.524l-87.044-73.659 113.186-19.153z"/><path fill="#6EA8BB" d="M2042.344 3809.524l113.083-43.641-86.941-49.171z"/><path fill="#78A9B7" d="M2192.883 3619.958l-37.456 145.925-86.941-49.171z"/><path fill="#6CA6B7" d="M2192.883 3619.958l-37.456 145.925 213.147-86.435z"/><path fill="#8ABFD0" d="M1832.211 3719.472l123.089 16.393-86.941-99.2z"/><path fill="#7FB4C5" d="M1832.211 3719.472l-117.063-63.654 153.211-19.153z"/><path fill="#8ABFD0" d="M1657.198 3519.363l57.95 136.455 153.211-19.153z"/><path fill="#6CA6B7" d="M1962.293 3599.401l-6.993 136.464-86.941-99.2z"/><path fill="#437E91" d="M1692.122 3859.554l143.102-23.63-166.992-89.195z"/><path fill="#4D8697" d="M1832.211 3719.472l3.013 116.452-166.992-89.195z"/><path fill="#5899AD" d="M1832.211 3719.472l-117.063-63.654-46.916 90.911zM1692.122 3859.554l-132.92-102.19 109.03-10.635z"/><path fill="#7FB4C5" d="M1602.065 3639.425l-42.863 117.939 109.03-10.635z"/><path fill="#6CA6B7" d="M1602.065 3639.425l113.086 16.445-46.919 90.859zM1602.065 3639.425l113.086 16.445-57.953-136.507z"/><path fill="#83BBCD" d="M1602.065 3639.425l-42.863 117.939-111.109-60.664z"/><path fill="#78A9B7" d="M1602.065 3639.425l-190.682-77.8 36.71 135.075z"/><path fill="#7FB4C5" d="M1321.888 3679.448l89.495-117.823 36.71 135.075z"/><path fill="#8ABFD0" d="M1361.913 4039.659l183.127-63.653 13.123 110.923z"/><path fill="#6CA6B7" d="M1361.913 4039.659l83.064 106.446 113.186-59.176z"/><path fill="#7FB4C5" d="M1361.913 4039.659l83.064 106.446-197.011 60.894z"/><path fill="#8ABFD0" d="M1361.913 4039.659l-97.051-33.636-16.896 200.976z"/><path fill="#80B4C4" d="M1287.991 3926.835l73.922 112.824 183.127-63.653-257.049-49.171M1287.991 3926.835l73.922 112.824-97.051-33.636 23.129-79.188"/><path fill="#6CA6B7" d="M1361.913 4039.659l-97.051-33.636 23.129-79.188"/><path fill="#78A9B7" d="M1287.991 3926.835l103.941-77.287 153.108 126.458-257.049-49.171"/><path fill="#80B4C4" d="M1287.991 3926.835l103.941-77.287-97.051-43.642-6.89 120.929"/><path fill="#78A9B7" d="M1448.093 3696.7l-153.212 109.206 97.051 43.642z"/><path fill="#83BBCD" d="M1448.093 3696.7l-153.212 109.206 27.007-126.458z"/><path fill="#4D8697" d="M1747.255 3299.234l-132.88 102.216-51.107-129.473z"/><path fill="#6CA6B7" d="M1447.075 3309.24l167.3 92.21-51.107-129.473z"/><path fill="#7FB4C5" d="M1447.075 3309.24l167.3 92.21-111.142 60.638z"/><path fill="#83BBCD" d="M1447.075 3309.24l153.295-126.918-37.102 89.655z"/><path fill="#5899AD" d="M1747.255 3299.234l-147.08-116.452-36.907 89.195z"/><path fill="#7FB4C5" d="M1747.255 3299.234l-147.08-116.452 13.122-110.923z"/><path fill="#6EA8BB" d="M1747.255 3299.234l13.02-196.499-146.978-30.876z"/><path fill="#8ABFD0" d="M1706.229 2924.013l54.046 178.722-146.978-30.876z"/><path fill="#7FB4C5" d="M1706.229 2924.013l-196.103 68.658 103.171 79.188z"/><path fill="#5F95A5" d="M1747.255 3299.234l13.02-196.499 73.161 109.206z"/><path fill="#78A9B7" d="M1877.338 3099.117l-117.063 3.618 73.161 109.206z"/><path fill="#6EA8BB" d="M1877.338 3099.117l-117.063 3.618-54.036-178.679z"/><path fill="#7FB4C5" d="M1877.338 3099.117l-6.993-106.446-164.106-68.615z"/><path fill="#4E889A" d="M1747.255 3299.234l143.102 23.63-56.921-110.923z"/><path fill="#6EA8BB" d="M1967.395 3159.152l-77.038 163.712-56.921-110.923z"/><path fill="#7FB4C5" d="M1967.395 3159.152l-90.09-60.041-43.869 112.83z"/><path fill="#78A9B7" d="M1967.395 3159.152l-90.09-60.041 106.226-37.257z"/><path fill="#8ABFD0" d="M1870.333 2993.053l6.972 106.058 106.226-37.257z"/><path fill="#7FB4C5" d="M1870.333 2993.053l147.061-54.035-33.863 122.836z"/><path fill="#6EA8BB" d="M2097.478 3049.088l-80.084-110.07-33.863 122.836z"/><path fill="#80B4C4" d="M2097.478 3049.088l-80.084-110.07 122.235 30.785z"/><path fill="#6EA8BB" d="M2097.478 3049.088l133.095 13.624-90.944-92.909z"/><path fill="#8ABFD0" d="M1967.395 3159.152l-77.038 163.712 103.18-.858z"/><path fill="#78A9B7" d="M1967.395 3159.152l103.077 73.66-76.935 89.194z"/><path fill="#5F95A5" d="M1967.395 3159.152l103.077 73.66-86.941-170.958z"/><path fill="#78A9B7" d="M2097.478 3049.088l-27.006 183.724-86.941-170.958z"/><path fill="#80B4C4" d="M2097.478 3049.088l-27.006 183.724 103.179-60.894z"/><path fill="#78A9B7" d="M2097.478 3049.088l133.095 13.624-56.922 109.206z"/><path fill="#4D8697" d="M2097.478 3349.264l-27.006-116.452-76.935 89.194z"/><path fill="#5899AD" d="M2097.478 3349.264l-27.006-116.452 98.173 69.182z"/><path fill="#80B4C4" d="M2097.478 3349.264l113.083 43.641-41.916-90.911z"/><path fill="#6EA8BB" d="M2097.478 3349.264l113.083 43.641-41.916-90.911zM2173.651 3171.918l-103.179 60.894 98.173 69.182z"/><path fill="#80B4C4" d="M2173.651 3171.918l86.941 80.905-91.947 49.171z"/><path fill="#5899AD" d="M1887.344 3439.316l3.013-116.452 103.18-.858z"/><path fill="#4D8697" d="M1887.344 3439.316l123.09-16.393-16.897-100.917z"/><path fill="#437E91" d="M1962.293 3599.397l48.141-176.474 113.186 19.153zM2097.478 3349.264l-87.044 73.659-16.897-100.917z"/><path fill="#4D8697" d="M2097.478 3349.264l-87.044 73.659 113.186 19.153z"/><path fill="#5899AD" d="M2097.478 3349.264l113.083 43.641-86.941 49.171zM1887.344 3439.316l123.09-16.393-86.941 99.2z"/><path fill="#6EA8BB" d="M1887.344 3439.316l-117.063 63.654 153.212 19.153z"/><path fill="#7FB4C5" d="M1868.359 3636.665l-98.078-133.695 153.212 19.153z"/><path fill="#4D8697" d="M1962.293 3599.397l48.141-176.474-86.941 99.2z"/><path fill="#8ABFD0" d="M1962.293 3599.397l-93.934 37.268 55.134-114.542z"/><path fill="#437E91" d="M1747.255 3299.234l143.102 23.63-166.991 89.195z"/><path fill="#4D8697" d="M1887.344 3439.316l3.013-116.452-166.991 89.195z"/><path fill="#5899AD" d="M1887.344 3439.316l-117.063 63.654-46.915-90.911zM1747.255 3299.234l-132.919 102.19 109.03 10.635z"/><path fill="#7FB4C5" d="M1657.198 3519.363l-42.862-117.939 109.03 10.635z"/><path fill="#6CA6B7" d="M1657.198 3519.363l113.086-16.445-46.918-90.859zM1657.198 3519.363l113.086-16.445 98.075 133.747z"/><path fill="#83BBCD" d="M1657.198 3519.363l-42.862-117.939-111.103 60.664z"/><path fill="#5899AD" d="M1657.198 3519.363l-55.133 120.062-98.832-177.337z"/><path fill="#4E889A" d="M1411.383 3561.625l190.682 77.8-98.832-177.337z"/><path fill="#8ABFD0" d="M1417.057 3119.129l183.118 63.653 13.122-110.923z"/><path fill="#6CA6B7" d="M1417.057 3119.129l93.066-126.458 103.174 79.188z"/><path fill="#7FB4C5" d="M1417.057 3119.129l93.066-126.458-166.984-30.876z"/><path fill="#8ABFD0" d="M1417.057 3119.129l-97.046 33.636 23.128-190.97z"/><path fill="#80B4C4" d="M1343.139 3231.953l73.918-112.824 183.118 63.653-257.036 49.171M1343.139 3231.953l73.918-112.824-97.046 33.636 23.128 79.188"/><path fill="#6CA6B7" d="M1417.057 3119.129l-97.046 33.636 23.128 79.188"/><path fill="#78A9B7" d="M1343.139 3231.953l103.936 77.287 153.1-126.458-257.036 49.171"/><path fill="#80B4C4" d="M1343.139 3231.953l103.936 77.287-97.046 43.642-6.89-120.929"/><path fill="#78A9B7" d="M1503.233 3462.088l-153.204-109.206 97.046-43.642z"/><path fill="#4D8697" d="M1503.233 3462.088l-153.204-109.206 27.005 126.458z"/><path fill="#437E91" d="M1503.233 3462.088l-91.85 99.537-34.349-82.285z"/><path fill="#4E889A" d="M1321.888 3679.448l89.495-117.823-34.349-82.285z"/><path fill="#4D8697" d="M2693.878 3379.281l132.877 102.216 51.109-129.474z"/><path fill="#6CA6B7" d="M2994.063 3389.287l-167.308 92.21 51.109-129.474z"/><path fill="#7FB4C5" d="M2994.063 3389.287l-167.308 92.21 111.147 60.638z"/><path fill="#83BBCD" d="M2994.063 3389.287l-153.302-126.918 37.103 89.654z"/><path fill="#5899AD" d="M2693.878 3379.281l147.077-116.452 36.909 89.194z"/><path fill="#7FB4C5" d="M2693.878 3379.281l147.077-116.452-13.122-110.923z"/><path fill="#6EA8BB" d="M2693.878 3379.281l-13.019-196.499 146.974-30.876z"/><path fill="#8ABFD0" d="M2743.91 2984.048l-63.051 198.734 146.974-30.876z"/><path fill="#7FB4C5" d="M2743.91 2984.048l197.105 108.681-113.182 59.177z"/><path fill="#5F95A5" d="M2693.878 3379.281l-13.019-196.499-73.161 109.206z"/><path fill="#78A9B7" d="M2563.796 3179.164l117.063 3.618-73.161 109.206z"/><path fill="#6EA8BB" d="M2563.796 3179.164l117.063 3.618 63.041-198.691z"/><path fill="#7FB4C5" d="M2563.796 3179.164l6.993-106.446 173.111-88.627z"/><path fill="#4E889A" d="M2693.878 3379.281l-143.102 23.63 56.922-110.923z"/><path fill="#6EA8BB" d="M2473.739 3239.199l77.037 163.712 56.922-110.923z"/><path fill="#7FB4C5" d="M2473.739 3239.199l90.09-60.041 43.869 112.83z"/><path fill="#78A9B7" d="M2473.739 3239.199l90.09-60.041-106.226-37.258z"/><path fill="#8ABFD0" d="M2570.801 3073.1l-6.972 106.058-106.226-37.258z"/><path fill="#7FB4C5" d="M2570.801 3073.1l-137.055-104.065 23.857 172.865z"/><path fill="#5899AD" d="M2343.656 3129.135l90.09-160.1 23.857 172.865z"/><path fill="#80B4C4" d="M2343.656 3129.135l90.09-160.1-203.173 93.677z"/><path fill="#6EA8BB" d="M2343.656 3129.135l-170.005 42.783 56.922-109.206z"/><path fill="#8ABFD0" d="M2473.739 3239.199l77.037 163.712-103.179-.858z"/><path fill="#78A9B7" d="M2473.739 3239.199l-103.077 73.659 76.935 89.195z"/><path fill="#5F95A5" d="M2473.739 3239.199l-103.077 73.659 86.941-170.958z"/><path fill="#78A9B7" d="M2343.656 3129.135l27.006 183.723 86.941-170.958z"/><path fill="#6EA8BB" d="M2343.656 3129.135l27.006 183.723-110.07-60.044z"/><path fill="#78A9B7" d="M2343.656 3129.135l-170.005 42.783 86.941 80.896z"/><path fill="#5F95A5" d="M2343.656 3429.311l27.006-116.453 76.935 89.195z"/><path fill="#4D8697" d="M2343.656 3429.311l27.006-116.453-160.101 80.047z"/><path fill="#80B4C4" d="M2343.656 3429.311l-113.083 43.641-20.012-80.047z"/><path fill="#437E91" d="M2343.656 3429.311l-113.083 43.641-20.012-80.047z"/><path fill="#4D8697" d="M2123.6 3442.047l106.973 30.905-20.012-80.047z"/><path fill="#5F95A5" d="M2123.6 3442.047l106.973 30.905-268.28 126.445z"/><path fill="#5899AD" d="M2260.592 3252.814l110.07 60.044-160.101 80.047z"/><path fill="#78A9B7" d="M2260.592 3252.814l-91.947 49.18 41.916 90.911z"/><path fill="#5899AD" d="M2553.79 3519.363l-3.014-116.452-103.179-.858z"/><path fill="#80B4C4" d="M2553.79 3519.363l-123.09-16.393 16.897-100.917z"/><path fill="#6CA6B7" d="M2368.574 3679.448l62.126-176.478-113.186 19.153z"/><path fill="#5899AD" d="M2368.574 3679.448l-175.691-59.49 124.631-97.835z"/><path fill="#78A9B7" d="M2343.656 3429.311l87.044 73.659 16.897-100.917z"/><path fill="#80B4C4" d="M2343.656 3429.311l87.044 73.659-113.186 19.153z"/><path fill="#5899AD" d="M2343.656 3429.311l-113.083 43.641 86.941 49.171z"/><path fill="#7FB4C5" d="M2192.883 3619.958l37.69-147.006 86.941 49.171z"/><path fill="#78A9B7" d="M2192.883 3619.958l37.69-147.006-268.28 126.445z"/><path fill="#4D8697" d="M2553.79 3519.363l-123.09-16.393 86.941 99.2z"/><path fill="#5F95A5" d="M2553.79 3519.363l117.063 63.654-153.212 19.153z"/><path fill="#6CA6B7" d="M2615.719 3735.865l55.134-152.848-153.212 19.153z"/><path fill="#5899AD" d="M2615.719 3735.865l55.134-152.848 57.949 136.455z"/><path fill="#6EA8BB" d="M2615.719 3735.865l-153.211-19.153 55.133-114.542z"/><path fill="#5899AD" d="M2368.574 3679.448l62.126-176.478 86.941 99.2z"/><path fill="#8ABFD0" d="M2368.574 3679.448l93.934 37.264 55.133-114.542z"/><path fill="#437E91" d="M2693.878 3379.281l-143.102 23.63 166.992 89.194z"/><path fill="#4D8697" d="M2553.79 3519.363l-3.014-116.452 166.992 89.194z"/><path fill="#5899AD" d="M2553.79 3519.363l117.063 63.654 46.915-90.912zM2693.878 3379.281l132.916 102.19-109.026 10.634z"/><path fill="#7FB4C5" d="M2783.932 3599.41l42.862-117.939-109.026 10.634z"/><path fill="#6CA6B7" d="M2783.932 3599.41l-113.082-16.445 46.918-90.86zM2783.932 3599.41l-113.082-16.445 57.952 136.507zM2783.932 3599.41l117.805 47.89-172.935 72.172z"/><path fill="#83BBCD" d="M2783.932 3599.41l42.862-117.939 111.108 60.664z"/><path fill="#5899AD" d="M2783.932 3599.41l117.805 47.89 36.165-105.165z"/><path fill="#8ABFD0" d="M3024.082 3199.176l-183.127 63.653-13.122-110.923z"/><path fill="#6CA6B7" d="M3024.082 3199.176l-83.063-106.447-113.186 59.177z"/><path fill="#7FB4C5" d="M3024.082 3199.176l-83.063-106.447 197.01-60.893z"/><path fill="#8ABFD0" d="M3024.082 3199.176l97.051 33.636 16.896-200.976z"/><path fill="#80B4C4" d="M3098.004 3312l-73.922-112.824-183.127 63.653 257.049 49.171M3098.004 3312l-73.922-112.824 97.051 33.636-23.129 79.188"/><path fill="#6CA6B7" d="M3024.082 3199.176l97.051 33.636-23.129 79.188"/><path fill="#78A9B7" d="M3098.004 3312l-103.941 77.287-153.108-126.458 257.049 49.171"/><path fill="#80B4C4" d="M3098.004 3312l-103.941 77.287 97.051 43.642 6.89-120.929"/><path fill="#78A9B7" d="M2937.902 3542.135l153.212-109.206-97.051-43.642z"/><path fill="#83BBCD" d="M2937.902 3542.135l153.212-109.206-27.007 126.458z"/><path fill="#4D8697" d="M2937.902 3542.135l-36.165 105.165 162.37-87.913z"/></svg>