<svg xmlns="http://www.w3.org/2000/svg" width="150" height="25" viewBox="0 0 150 25"><path fill="#fff" d="M29.938 21.406c-2.123 0-4.04-.233-5.748-1.942l2.201-2.201c1.113 1.113 2.564 1.269 3.599 1.269 1.165 0 2.382-.388 2.382-1.398 0-.673-.363-1.139-1.424-1.243l-2.124-.207c-2.434-.233-3.935-1.295-3.935-3.78 0-2.797 2.46-4.298 5.204-4.298 2.098 0 3.859.363 5.153 1.579l-2.071 2.098c-.777-.699-1.968-.907-3.134-.907-1.346 0-1.916.622-1.916 1.295 0 .492.207 1.062 1.398 1.165l2.123.208c2.667.258 4.014 1.683 4.014 3.961.001 2.977-2.537 4.401-5.722 4.401zM41.537 21.251c-2.745 0-3.91-1.942-3.91-3.858v-6.68h-1.424v-2.564h1.424v-3.988h3.366v3.988h2.382v2.563h-2.382v6.474c0 .777.363 1.217 1.165 1.217h1.217v2.848h-1.838zM44.871 5.455v-2.744h3.444v2.744h-3.444zm.052 15.796v-13.491h3.366v13.49h-3.366zM55.896 21.406c-2.693 0-6.033-1.45-6.033-6.914s3.34-6.888 6.033-6.888c1.864 0 3.262.57 4.454 1.813l-2.278 2.279c-.699-.751-1.295-1.062-2.175-1.062-.803 0-1.424.285-1.916.88-.518.647-.751 1.554-.751 2.978 0 1.425.233 2.357.751 3.004.492.596 1.113.88 1.916.88.881 0 1.476-.311 2.175-1.062l2.278 2.253c-1.192 1.243-2.59 1.839-4.454 1.839zM69.637 21.251l-3.314-5.619-1.424 1.605v4.013h-3.366v-18.436h3.366v10.461l4.48-5.515h4.065l-4.816 5.438 5.179 8.053h-4.17zM76.617 15.554c0 1.735 1.061 3.003 2.952 3.003 1.475 0 2.201-.414 3.055-1.269l2.046 1.994c-1.372 1.372-2.692 2.123-5.127 2.123-3.185 0-6.24-1.45-6.24-6.914 0-4.402 2.382-6.888 5.877-6.888 3.754 0 5.878 2.745 5.878 6.447v1.502h-8.441zm4.815-3.754c-.362-.803-1.113-1.399-2.252-1.399-1.14 0-1.891.596-2.253 1.399-.207.492-.285.854-.311 1.45h5.126c-.025-.596-.102-.958-.31-1.45zM93.985 11.437c-.518-.518-.958-.803-1.786-.803-1.036 0-2.176.777-2.176 2.486v8.13h-3.366v-13.49h3.289v1.295c.648-.777 1.942-1.45 3.392-1.45 1.321 0 2.253.336 3.185 1.269l-2.538 2.563z"/><path fill="#F26922" d="M111.65 7.605c-1.683 0-2.9.518-4.04 1.709-.854-1.165-2.071-1.709-3.573-1.709-1.243 0-2.486.492-3.366 1.398v-1.243h-3.289v13.49h3.366v-8.156c0-1.839 1.191-2.46 2.252-2.46 1.062 0 2.227.621 2.227 2.46v8.156h3.366v-8.234c0-1.761 1.217-2.382 2.252-2.382 1.062 0 2.227.621 2.227 2.46v8.156h3.366v-8.622c0-1.476-.388-2.745-1.476-3.832-.748-.751-1.965-1.191-3.312-1.191zM126.281 15.917c0 1.838-1.191 2.459-2.253 2.459-1.061 0-2.227-.621-2.227-2.459v-8.157h-3.366v8.623c0 1.475.285 2.744 1.372 3.832.751.751 1.839 1.191 3.185 1.191 1.243 0 2.486-.466 3.366-1.398v1.243h3.289v-13.491h-3.366v8.157zM135.156 17.186v-14.372h-3.366v14.578c0 1.916 1.165 3.858 3.935 3.858h1.916v-2.848h-1.295c-.853.001-1.19-.414-1.19-1.216zM150 14.052c0-3.703-2.123-6.447-5.878-6.447-3.496 0-5.878 2.486-5.878 6.888 0 5.463 3.055 6.914 6.24 6.914 2.434 0 3.755-.751 5.127-2.123l-2.046-1.994c-.854.854-1.58 1.269-3.055 1.269-1.891 0-2.952-1.269-2.952-3.003h8.442v-1.504zm-8.441-.803c.026-.595.103-.958.31-1.45.363-.803 1.114-1.399 2.253-1.399s1.89.596 2.252 1.399c.208.492.285.854.311 1.45h-5.126z"/><path fill-rule="evenodd" clip-rule="evenodd" fill="#fff" d="M13.819 22.744c-.194.093-.458.072-.732.081-.235.006-.565.011-.702-.11-.075-.066-.096-.208-.101-.291-.006-.099.019-.221.04-.332.025-.131.051-.299 0-.371-.059-.084-.27-.049-.381-.111-.118-.066-.152-.224-.19-.401l-.051-.151c-.033-.271.058-.634.121-.913.066-.295.152-.57.2-.843.074-.413.099-.879.071-1.305-.014-.221-.044-.396-.01-.581l.14-.492.01-.181.04-.14-.04-.401c-.024-.387.006-.933.031-1.264.008-.116.062-.248-.02-.301-.403-.006-.77.072-1.145.121-1.009.129-2.278.146-3.251-.05l-.271-.04c-.69-.159-1.326-.455-1.817-.843l-.251-.191-.251-.191c-.394-.183-.914.028-1.074.281l-.171.351-.161.351-.812 1.756c-.151.344-.319.727-.432 1.114-.239.82-.016 1.918.171 2.689l.08.22c.06.187.186.435.331.562l.291.181c.108.092.188.275.271.431l.13.22c.099.173.134.329-.061.432-.146.078-.367.097-.571.11-.093.024-.064.149-.12.211-.032.035-.17.09-.241.11-.269.078-.724.074-.933 0-.105-.037-.224-.117-.251-.2-.052-.164.077-.372-.04-.502l-.261-.09c-.14-.062-.274-.193-.341-.362-.16-.404-.061-1.039-.08-1.535l-.03-.461c-.009-.295-.079-.583-.11-.873l-.09-.391c-.046-.207-.08-.432-.14-.643-.066-.231-.068-.456.01-.652l.11-.181c.047-.113.063-.247.06-.351l-.211-.07c-.084-.634-.179-1.273-.23-1.937l-.04-.682-.05-1.355-.1-.623c-.077-.582-.239-1.329-.121-1.936.077-.39.216-.706.442-.993.156-.2.326-.393.512-.572.177-.171.381-.34.592-.491.135-.098.279-.212.431-.282.337-.154.775-.29 1.235-.311.461-.019.985-.023 1.444.061.438.079.874.156 1.304.24.422.083.835.197 1.234.301l.151.06.412.08c.372.102.861.152 1.314.152.493 0 .938-.013 1.345-.11l.171-.07.2-.04.13-.08c.235-.112.434-.225.643-.371.164-.116.301-.215.521-.301l.291-.121c.208-.066.434-.128.593-.231.249-.16.434-.391.642-.571.217-.19.435-.371.662-.553l1.364-1.053c.22-.177.464-.344.723-.491.506-.289 1.018-.629 1.745-.683.285-.021.586-.029.874.01l.261.04c.08-.017.138-.137.19-.23.108-.192.186-.32.281-.552.059-.143.034-.286.18-.281.149.006.124.388.13.532.009.175-.021.41.01.531.021.084.133.208.251.211.081.002.135-.065.21-.11l.201-.11c.119-.089.261-.237.382-.361.099-.102.254-.342.422-.321.285.034.002.455-.061.592-.149.329-.293.574-.461.884-.07.127-.23.299-.231.431 0 .093.08.155.121.251l.05.14c.098.227.172.547.25.813.066.224.12.461.202.682l.281.632.05.181c.183.469.361 1.003.581 1.455.09.183.212.412.211.683-.002.299-.157.441-.292.662-.07.117-.174.295-.28.331l-.251.01-.292.1c-.272.031-.517-.181-.592-.382l-.029-.241c-.065-.326-.223-.483-.452-.692-.145-.133-.257-.235-.441-.331l-.813-.362c-.1-.053-.226-.106-.311-.09-.145.028-.289.264-.401.412-.708.933-1.335 1.892-2.028 2.81-.458.606-.947 1.222-1.314 1.916-.093.174-.147.379-.22.582l-.181.632c-.267.763-.349 1.692-.591 2.489l-.06.27c-.111.407-.223.873-.351 1.305-.096.321-.125.756-.141 1.184-.015.396-.034.962.111 1.214l.451.321.191.412c.05.087.192.275.181.411-.009.102-.095.174-.171.21l-.29.061-.142.219z"/></svg>