<svg xmlns="http://www.w3.org/2000/svg" width="5493.771" height="654.352" viewBox="0 0 5493.771 654.352"><path d="M197.771 185.676v-3.123h-138.954v-136.621h433.937v136.621h-138.176v3.123l-156.898 386.161.091-386.161zM1111.078 305.21c0-159.138 123.428-267.82 283.341-267.82 159.91 0 283.338 108.683 283.338 267.82 0 159.141-123.428 267.819-283.338 267.819-159.914 0-283.341-108.677-283.341-267.819zm407.544 0c0-72.195-48.905-129.642-124.203-129.642s-124.204 57.447-124.204 129.642c0 72.201 48.906 129.64 124.204 129.64s124.203-57.439 124.203-129.64zM1733.665 351.014v-305.082h159.137v299.648c0 49.683 32.602 89.271 97.033 89.271 63.653 0 96.257-39.588 96.257-89.271v-299.648h159.138v304.308c0 128.86-80.733 222.79-255.395 222.79s-256.17-93.93-256.17-222.016zM2301.142 305.21c0-166.127 128.085-267.82 284.893-267.82 123.428 0 194.85 68.316 227.454 135.075l-131.974 67.535c-14.747-31.827-48.905-64.431-95.48-64.431-75.298 0-125.756 57.447-125.756 129.642 0 72.201 50.458 129.64 125.756 129.64 29.498 0 64.432-10.865 80.733-23.283v-18.635h-96.26v-136.627h252.294v211.928c-57.444 63.656-135.076 104.796-236.768 104.796-156.807-.001-284.892-102.467-284.892-267.82zM3235.015 563.714v-197.948h-185.525v197.948h-156.802v-517.782h156.802v183.201h185.524v-183.201h156.808v517.782h-156.807zM894.255 563.714v-197.948h-185.524v197.948h-156.802v-517.782h156.802v183.201h185.524v-183.201h156.808v517.782h-156.808zM3586.682 563.714v-381.161h-138.952v-136.621h433.937v136.621h-138.179v381.161h-156.806zM4550.42 563.714l-18.629-60.547h-186.309l-18.629 60.547h-177.766l190.963-517.782h197.169l190.968 517.782h-177.767zm-111.785-364.077l-51.233 166.903h102.472l-51.239-166.903zM5214.15 563.714v-311.29l-115.662 311.29h-69.868l-115.662-311.29v311.29h-156.808v-517.782h216.582l90.821 248.413 90.827-248.413h216.576v517.782h-156.806zM3834.265 563.714h1.188v-2.315zM4141.305 223.701c2.643-78.588-36.845-141.733-77.646-174.514l-159.719 378.478 59.604 136.05h178.539l-93.93-183.199c41.145-20.188 90.149-67.592 93.152-156.815z"/></svg>