<?xml version="1.0" encoding="utf-8"?>
<!-- Generator: Adobe Illustrator 17.0.0, SVG Export Plug-In . SVG Version: 6.00 Build 0)  -->
<!DOCTYPE svg PUBLIC "-//W3C//DTD SVG 1.1//EN" "http://www.w3.org/Graphics/SVG/1.1/DTD/svg11.dtd">
<svg version="1.1" id="Layer_1" xmlns="http://www.w3.org/2000/svg" xmlns:xlink="http://www.w3.org/1999/xlink" x="0px" y="0px"
	 width="150px" height="25px" viewBox="0 0 150 25" enable-background="new 0 0 150 25" xml:space="preserve">
<g>
	<path fill="#FFFFFF" d="M29.938,21.406c-2.123,0-4.04-0.233-5.748-1.942l2.201-2.201c1.113,1.113,2.564,1.269,3.599,1.269
		c1.165,0,2.382-0.388,2.382-1.398c0-0.673-0.363-1.139-1.424-1.243l-2.124-0.207c-2.434-0.233-3.935-1.295-3.935-3.78
		c0-2.797,2.46-4.298,5.204-4.298c2.098,0,3.859,0.363,5.153,1.579l-2.071,2.098c-0.777-0.699-1.968-0.907-3.134-0.907
		c-1.346,0-1.916,0.622-1.916,1.295c0,0.492,0.207,1.062,1.398,1.165l2.123,0.208c2.667,0.258,4.014,1.683,4.014,3.961
		C35.661,19.982,33.123,21.406,29.938,21.406z"/>
	<path fill="#FFFFFF" d="M41.537,21.251c-2.745,0-3.91-1.942-3.91-3.858v-6.68h-1.424V8.149h1.424V4.161h3.366v3.988h2.382v2.563
		h-2.382v6.474c0,0.777,0.363,1.217,1.165,1.217h1.217v2.848H41.537z"/>
	<path fill="#FFFFFF" d="M44.871,5.455V2.711h3.444v2.744H44.871z M44.923,21.251V7.76h3.366v13.49H44.923z"/>
	<path fill="#FFFFFF" d="M55.896,21.406c-2.693,0-6.033-1.45-6.033-6.914s3.34-6.888,6.033-6.888c1.864,0,3.262,0.57,4.454,1.813
		l-2.278,2.279c-0.699-0.751-1.295-1.062-2.175-1.062c-0.803,0-1.424,0.285-1.916,0.88c-0.518,0.647-0.751,1.554-0.751,2.978
		c0,1.425,0.233,2.357,0.751,3.004c0.492,0.596,1.113,0.88,1.916,0.88c0.881,0,1.476-0.311,2.175-1.062l2.278,2.253
		C59.158,20.81,57.76,21.406,55.896,21.406z"/>
	<path fill="#FFFFFF" d="M69.637,21.251l-3.314-5.619l-1.424,1.605v4.013h-3.366V2.814h3.366v10.461l4.48-5.515h4.065l-4.816,5.438
		l5.179,8.053H69.637z"/>
	<path fill="#FFFFFF" d="M76.617,15.554c0,1.735,1.061,3.003,2.952,3.003c1.475,0,2.201-0.414,3.055-1.269l2.046,1.994
		c-1.372,1.372-2.692,2.123-5.127,2.123c-3.185,0-6.24-1.45-6.24-6.914c0-4.402,2.382-6.888,5.877-6.888
		c3.754,0,5.878,2.745,5.878,6.447v1.502H76.617z M81.432,11.8c-0.362-0.803-1.113-1.399-2.252-1.399
		c-1.14,0-1.891,0.596-2.253,1.399c-0.207,0.492-0.285,0.854-0.311,1.45h5.126C81.717,12.654,81.64,12.292,81.432,11.8z"/>
	<path fill="#FFFFFF" d="M93.985,11.437c-0.518-0.518-0.958-0.803-1.786-0.803c-1.036,0-2.176,0.777-2.176,2.486v8.13h-3.366V7.76
		h3.289v1.295c0.648-0.777,1.942-1.45,3.392-1.45c1.321,0,2.253,0.336,3.185,1.269L93.985,11.437z"/>
	<path fill="#F26922" d="M111.65,7.605c-1.683,0-2.9,0.518-4.04,1.709c-0.854-1.165-2.071-1.709-3.573-1.709
		c-1.243,0-2.486,0.492-3.366,1.398V7.76h-3.289v13.49h3.366v-8.156c0-1.839,1.191-2.46,2.252-2.46c1.062,0,2.227,0.621,2.227,2.46
		v8.156h3.366v-8.234c0-1.761,1.217-2.382,2.252-2.382c1.062,0,2.227,0.621,2.227,2.46v8.156h3.366v-8.622
		c0-1.476-0.388-2.745-1.476-3.832C114.214,8.045,112.997,7.605,111.65,7.605z"/>
	<path fill="#F26922" d="M126.281,15.917c0,1.838-1.191,2.459-2.253,2.459c-1.061,0-2.227-0.621-2.227-2.459V7.76h-3.366v8.623
		c0,1.475,0.285,2.744,1.372,3.832c0.751,0.751,1.839,1.191,3.185,1.191c1.243,0,2.486-0.466,3.366-1.398v1.243h3.289V7.76h-3.366
		V15.917z"/>
	<path fill="#F26922" d="M135.156,17.186V2.814h-3.366v14.578c0,1.916,1.165,3.858,3.935,3.858h1.916v-2.848h-1.295
		C135.493,18.403,135.156,17.988,135.156,17.186z"/>
	<path fill="#F26922" d="M150,14.052c0-3.703-2.123-6.447-5.878-6.447c-3.496,0-5.878,2.486-5.878,6.888
		c0,5.463,3.055,6.914,6.24,6.914c2.434,0,3.755-0.751,5.127-2.123l-2.046-1.994c-0.854,0.854-1.58,1.269-3.055,1.269
		c-1.891,0-2.952-1.269-2.952-3.003H150V14.052z M141.559,13.249c0.026-0.595,0.103-0.958,0.31-1.45
		c0.363-0.803,1.114-1.399,2.253-1.399c1.139,0,1.89,0.596,2.252,1.399c0.208,0.492,0.285,0.854,0.311,1.45H141.559z"/>
	<path fill-rule="evenodd" clip-rule="evenodd" fill="#FFFFFF" d="M13.819,22.744c-0.194,0.093-0.458,0.072-0.732,0.081
		c-0.235,0.006-0.565,0.011-0.702-0.11c-0.075-0.066-0.096-0.208-0.101-0.291c-0.006-0.099,0.019-0.221,0.04-0.332
		c0.025-0.131,0.051-0.299,0-0.371c-0.059-0.084-0.27-0.049-0.381-0.111c-0.118-0.066-0.152-0.224-0.19-0.401
		c-0.013-0.056-0.046-0.107-0.051-0.151c-0.033-0.271,0.058-0.634,0.121-0.913c0.066-0.295,0.152-0.57,0.2-0.843
		c0.074-0.413,0.099-0.879,0.071-1.305c-0.014-0.221-0.044-0.396-0.01-0.581c0.032-0.174,0.105-0.318,0.14-0.492
		c0.011-0.055,0.002-0.12,0.01-0.181c0.007-0.053,0.038-0.096,0.04-0.14c0.006-0.115-0.031-0.257-0.04-0.401
		c-0.024-0.387,0.006-0.933,0.031-1.264c0.008-0.116,0.062-0.248-0.02-0.301c-0.403-0.006-0.77,0.072-1.145,0.121
		c-1.009,0.129-2.278,0.146-3.251-0.05c-0.092-0.019-0.185-0.02-0.271-0.04c-0.69-0.159-1.326-0.455-1.817-0.843
		c-0.075-0.06-0.165-0.124-0.251-0.191c-0.083-0.065-0.172-0.154-0.251-0.191c-0.394-0.183-0.914,0.028-1.074,0.281
		c-0.064,0.101-0.109,0.231-0.171,0.351c-0.059,0.115-0.11,0.236-0.161,0.351c-0.259,0.593-0.552,1.16-0.812,1.756
		c-0.151,0.344-0.319,0.727-0.432,1.114c-0.239,0.82-0.016,1.918,0.171,2.689c0.017,0.071,0.055,0.142,0.08,0.22
		c0.06,0.187,0.186,0.435,0.331,0.562c0.076,0.066,0.205,0.106,0.291,0.181c0.108,0.092,0.188,0.275,0.271,0.431
		c0.035,0.065,0.083,0.139,0.13,0.22c0.099,0.173,0.134,0.329-0.061,0.432c-0.146,0.078-0.367,0.097-0.571,0.11
		c-0.093,0.024-0.064,0.149-0.12,0.211c-0.032,0.035-0.17,0.09-0.241,0.11c-0.269,0.078-0.724,0.074-0.933,0
		c-0.105-0.037-0.224-0.117-0.251-0.2c-0.052-0.164,0.077-0.372-0.04-0.502c-0.051-0.056-0.163-0.046-0.261-0.09
		c-0.14-0.062-0.274-0.193-0.341-0.362c-0.16-0.404-0.061-1.039-0.08-1.535c-0.005-0.145-0.025-0.3-0.03-0.461
		c-0.009-0.295-0.079-0.583-0.11-0.873c-0.015-0.141-0.062-0.262-0.09-0.391c-0.046-0.207-0.08-0.432-0.14-0.643
		c-0.066-0.231-0.068-0.456,0.01-0.652c0.022-0.055,0.079-0.106,0.11-0.181c0.047-0.113,0.063-0.247,0.06-0.351
		c-0.034-0.059-0.174-0.012-0.211-0.07c-0.084-0.634-0.179-1.273-0.23-1.937c-0.017-0.221-0.018-0.453-0.04-0.682
		c-0.044-0.454-0.007-0.916-0.05-1.355c-0.021-0.215-0.073-0.416-0.1-0.623c-0.077-0.582-0.239-1.329-0.121-1.936
		c0.077-0.39,0.216-0.706,0.442-0.993C0.64,8.425,0.81,8.232,0.996,8.053c0.177-0.171,0.381-0.34,0.592-0.491
		C1.723,7.464,1.867,7.35,2.019,7.28c0.337-0.154,0.775-0.29,1.235-0.311C3.715,6.95,4.239,6.946,4.698,7.03
		c0.438,0.079,0.874,0.156,1.304,0.24c0.422,0.083,0.835,0.197,1.234,0.301c0.052,0.013,0.097,0.045,0.151,0.06
		c0.127,0.035,0.27,0.043,0.412,0.08C8.171,7.813,8.66,7.863,9.113,7.863c0.493,0,0.938-0.013,1.345-0.11
		c0.06-0.015,0.107-0.046,0.171-0.07c0.064-0.025,0.141-0.02,0.2-0.04c0.041-0.014,0.084-0.058,0.13-0.08
		c0.235-0.112,0.434-0.225,0.643-0.371c0.164-0.116,0.301-0.215,0.521-0.301c0.098-0.038,0.196-0.09,0.291-0.121
		c0.208-0.066,0.434-0.128,0.593-0.231c0.249-0.16,0.434-0.391,0.642-0.571c0.217-0.19,0.435-0.371,0.662-0.553
		c0.461-0.367,0.929-0.703,1.364-1.053c0.22-0.177,0.464-0.344,0.723-0.491c0.506-0.289,1.018-0.629,1.745-0.683
		c0.285-0.021,0.586-0.029,0.874,0.01c0.08,0.011,0.188,0.056,0.261,0.04c0.08-0.017,0.138-0.137,0.19-0.23
		c0.108-0.192,0.186-0.32,0.281-0.552c0.059-0.143,0.034-0.286,0.18-0.281c0.149,0.006,0.124,0.388,0.13,0.532
		c0.009,0.175-0.021,0.41,0.01,0.531c0.021,0.084,0.133,0.208,0.251,0.211c0.081,0.002,0.135-0.065,0.21-0.11
		c0.079-0.046,0.152-0.073,0.201-0.11c0.119-0.089,0.261-0.237,0.382-0.361c0.099-0.102,0.254-0.342,0.422-0.321
		c0.285,0.034,0.002,0.455-0.061,0.592c-0.149,0.329-0.293,0.574-0.461,0.884c-0.07,0.127-0.23,0.299-0.231,0.431
		c0,0.093,0.08,0.155,0.121,0.251c0.019,0.046,0.031,0.095,0.05,0.14c0.098,0.227,0.172,0.547,0.25,0.813
		c0.066,0.224,0.12,0.461,0.202,0.682c0.079,0.216,0.193,0.42,0.281,0.632c0.022,0.056,0.027,0.124,0.05,0.181
		c0.183,0.469,0.361,1.003,0.581,1.455c0.09,0.183,0.212,0.412,0.211,0.683c-0.002,0.299-0.157,0.441-0.292,0.662
		c-0.07,0.117-0.174,0.295-0.28,0.331c-0.079,0.028-0.171-0.001-0.251,0.01c-0.113,0.016-0.192,0.089-0.292,0.1
		c-0.272,0.031-0.517-0.181-0.592-0.382c-0.025-0.068-0.013-0.161-0.029-0.241c-0.065-0.326-0.223-0.483-0.452-0.692
		c-0.145-0.133-0.257-0.235-0.441-0.331c-0.256-0.133-0.541-0.215-0.813-0.362c-0.1-0.053-0.226-0.106-0.311-0.09
		c-0.145,0.028-0.289,0.264-0.401,0.412c-0.708,0.933-1.335,1.892-2.028,2.81c-0.458,0.606-0.947,1.222-1.314,1.916
		c-0.093,0.174-0.147,0.379-0.22,0.582c-0.072,0.199-0.106,0.42-0.181,0.632c-0.267,0.763-0.349,1.692-0.591,2.489
		c-0.026,0.084-0.035,0.18-0.06,0.27c-0.111,0.407-0.223,0.873-0.351,1.305c-0.096,0.321-0.125,0.756-0.141,1.184
		c-0.015,0.396-0.034,0.962,0.111,1.214c0.076,0.134,0.348,0.182,0.451,0.321c0.071,0.096,0.119,0.285,0.191,0.412
		c0.05,0.087,0.192,0.275,0.181,0.411c-0.009,0.102-0.095,0.174-0.171,0.21c-0.084,0.042-0.209,0.016-0.29,0.061
		C13.87,22.573,13.913,22.683,13.819,22.744z"/>
</g>
</svg>
