<?xml version="1.0" encoding="utf-8"?>
<!-- Generator: Adobe Illustrator 15.1.0, SVG Export Plug-In . SVG Version: 6.00 Build 0)  -->
<!DOCTYPE svg PUBLIC "-//W3C//DTD SVG 1.1//EN" "http://www.w3.org/Graphics/SVG/1.1/DTD/svg11.dtd">
<svg version="1.1" id="Layer_1" xmlns="http://www.w3.org/2000/svg" xmlns:xlink="http://www.w3.org/1999/xlink" x="0px" y="0px"
	 width="5493.771px" height="654.352px" viewBox="0 0 5493.771 654.352" enable-background="new 0 0 5493.771 654.352"
	 xml:space="preserve">
<g>
	<path d="M197.771,185.676v-3.123H58.817V45.932h433.937v136.621H354.578v3.123L197.68,571.837L197.771,185.676z"/>
	<path d="M1111.078,305.21c0-159.138,123.428-267.82,283.341-267.82c159.91,0,283.338,108.683,283.338,267.82
		c0,159.141-123.428,267.819-283.338,267.819C1234.505,573.029,1111.078,464.352,1111.078,305.21z M1518.622,305.21
		c0-72.195-48.905-129.642-124.203-129.642s-124.204,57.447-124.204,129.642c0,72.201,48.906,129.64,124.204,129.64
		S1518.622,377.411,1518.622,305.21z"/>
	<path d="M1733.665,351.014V45.932h159.137V345.58c0,49.683,32.602,89.271,97.033,89.271c63.653,0,96.257-39.588,96.257-89.271
		V45.932h159.138V350.24c0,128.86-80.733,222.79-255.395,222.79S1733.665,479.1,1733.665,351.014z"/>
	<path d="M2301.142,305.21c0-166.127,128.085-267.82,284.893-267.82c123.428,0,194.85,68.316,227.454,135.075L2681.515,240
		c-14.747-31.827-48.905-64.431-95.48-64.431c-75.298,0-125.756,57.447-125.756,129.642c0,72.201,50.458,129.64,125.756,129.64
		c29.498,0,64.432-10.865,80.733-23.283v-18.635h-96.26V256.306h252.294v211.928c-57.444,63.656-135.076,104.796-236.768,104.796
		C2429.227,573.029,2301.142,470.563,2301.142,305.21z"/>
	<path d="M3235.015,563.714V365.766H3049.49v197.948h-156.802V45.932h156.802v183.201h185.524V45.932h156.808v517.782H3235.015z"/>
	<path d="M894.255,563.714V365.766H708.731v197.948H551.929V45.932h156.802v183.201h185.524V45.932h156.808v517.782H894.255z"/>
	<path d="M3586.682,563.714V182.553H3447.73V45.932h433.937v136.621h-138.179v381.161H3586.682z"/>
	<path d="M4550.42,563.714l-18.629-60.547h-186.309l-18.629,60.547h-177.766L4340.05,45.932h197.169l190.968,517.782H4550.42z
		 M4438.635,199.637l-51.233,166.903h102.472L4438.635,199.637z"/>
	<path d="M5214.15,563.714v-311.29l-115.662,311.29h-69.868l-115.662-311.29v311.29H4756.15V45.932h216.582l90.821,248.413
		l90.827-248.413h216.576v517.782H5214.15z"/>
</g>
<g>
	<polygon points="3834.265,563.714 3835.453,563.714 3835.453,561.399 	"/>
	<path d="M4141.305,223.701c2.643-78.588-36.845-141.733-77.646-174.514l-159.719,378.478l59.604,136.05h178.539l-93.93-183.199
		C4089.298,360.328,4138.302,312.924,4141.305,223.701z"/>
</g>
</svg>
